<?xml version="1.0" standalone="no"?>
<!DOCTYPE svg PUBLIC "-//W3C//DTD SVG 20010904//EN"
 "http://www.w3.org/TR/2001/REC-SVG-20010904/DTD/svg10.dtd">
<svg version="1.0" xmlns="http://www.w3.org/2000/svg"
 width="72.000000pt" height="72.000000pt" viewBox="0 0 72.000000 72.000000"
 preserveAspectRatio="xMidYMid meet">
<metadata>
Created by potrace 1.14, written by Peter Selinger 2001-2017
</metadata>
<g transform="translate(0.000000,72.000000) scale(0.100000,-0.100000)"
fill="#000000" stroke="none">
<path d="M200 700 c0 -16 -7 -20 -35 -20 -33 0 -35 -2 -35 -35 0 -28 -4 -35
-20 -35 -19 0 -20 -7 -20 -95 0 -88 1 -95 20 -95 13 0 20 -7 20 -20 0 -13 7
-20 20 -20 13 0 20 -7 20 -20 0 -11 7 -20 15 -20 8 0 15 -9 15 -20 0 -11 -7
-20 -15 -20 -12 0 -15 -15 -15 -75 0 -60 3 -75 15 -75 12 0 15 -15 15 -75 l0
-75 155 0 155 0 0 75 c0 60 3 75 15 75 12 0 15 15 15 75 0 60 -3 75 -15 75 -8
0 -15 9 -15 20 0 11 7 20 15 20 8 0 15 9 15 20 0 13 7 20 20 20 13 0 20 7 20
20 0 13 7 20 20 20 19 0 20 7 20 95 0 88 -1 95 -20 95 -16 0 -20 7 -20 35 0
33 -2 35 -35 35 -28 0 -35 4 -35 20 0 19 -7 20 -155 20 -148 0 -155 -1 -155
-20z m270 -40 c0 -16 7 -20 35 -20 33 0 35 -2 35 -35 0 -28 4 -35 20 -35 18 0
20 -7 20 -60 0 -53 -2 -60 -20 -60 -11 0 -20 -7 -20 -15 0 -8 -7 -15 -15 -15
-8 0 -15 -9 -15 -20 0 -13 -7 -20 -20 -20 -13 0 -20 -7 -20 -20 0 -13 -7 -20
-20 -20 -13 0 -20 -7 -20 -20 0 -13 7 -20 20 -20 11 0 20 -7 20 -15 0 -8 9
-15 20 -15 17 0 20 -7 20 -40 0 -33 -3 -40 -20 -40 -13 0 -20 7 -20 20 0 13
-7 20 -20 20 -13 0 -20 7 -20 20 0 13 -7 20 -20 20 -17 0 -20 -7 -20 -40 0
-33 3 -40 20 -40 13 0 20 -7 20 -20 0 -13 7 -20 20 -20 18 0 20 -7 20 -55 l0
-55 -40 0 -40 0 0 55 0 55 -35 0 -35 0 0 -55 0 -55 -40 0 -40 0 0 55 c0 48 2
55 20 55 13 0 20 7 20 20 0 13 7 20 20 20 17 0 20 7 20 40 0 33 -3 40 -20 40
-13 0 -20 -7 -20 -20 0 -13 -7 -20 -20 -20 -13 0 -20 -7 -20 -20 0 -13 -7 -20
-20 -20 -17 0 -20 7 -20 40 0 33 3 40 20 40 11 0 20 7 20 15 0 8 9 15 20 15
13 0 20 7 20 20 0 13 -7 20 -20 20 -13 0 -20 7 -20 20 0 13 -7 20 -20 20 -13
0 -20 7 -20 20 0 11 -7 20 -15 20 -8 0 -15 7 -15 15 0 8 -9 15 -20 15 -18 0
-20 7 -20 60 0 53 2 60 20 60 16 0 20 7 20 35 0 33 2 35 35 35 28 0 35 4 35
20 0 19 7 20 115 20 108 0 115 -1 115 -20z"/>
<path d="M280 510 c0 -17 -7 -20 -40 -20 -39 0 -40 -1 -40 -35 0 -28 4 -35 20
-35 13 0 20 -7 20 -20 0 -13 7 -20 20 -20 13 0 20 -7 20 -20 0 -13 7 -20 20
-20 13 0 20 -7 20 -20 0 -16 7 -20 35 -20 28 0 35 4 35 20 0 13 7 20 20 20 13
0 20 7 20 20 0 13 7 20 20 20 13 0 20 7 20 20 0 13 7 20 20 20 16 0 20 7 20
35 0 34 -1 35 -40 35 -33 0 -40 3 -40 20 0 18 -7 20 -75 20 -68 0 -75 -2 -75
-20z m110 -40 c0 -16 -7 -20 -35 -20 -28 0 -35 4 -35 20 0 16 7 20 35 20 28 0
35 -4 35 -20z m0 -90 c0 -39 -1 -40 -35 -40 -34 0 -35 1 -35 40 0 39 1 40 35
40 34 0 35 -1 35 -40z"/>
</g>
</svg>
