<svg xmlns="http://www.w3.org/2000/svg" width="16" height="320"><path d="M5.535 21.694V5.002L1.95 7.818.85 6.564l4.685-3.686h1.997v18.816Zm-4.531 32v-.026q0-.691.025-1.382.026-.692.128-1.383.128-.69.333-1.357.23-.665.538-1.254.332-.614.742-1.178.435-.563.922-1.05.512-.486 1.05-.895.537-.435 1.1-.845.563-.41 1.1-.845.538-.46.922-1.024.384-.589.564-1.254.204-.691.204-1.383 0-.614-.153-1.228-.128-.64-.512-1.127-.359-.512-.973-.742-.589-.256-1.203-.256-.589 0-1.152.205-.538.179-.947.614-.384.41-.564.973-.179.537-.179 1.126v.103H.952v-.154q0-.64.128-1.254.154-.64.461-1.178.307-.563.768-.998.461-.461 1.024-.743.563-.281 1.178-.384.64-.102 1.28-.102.665 0 1.331.128.666.128 1.254.46.59.333 1.024.845.461.487.743 1.101.281.615.384 1.28.102.666.102 1.331 0 .743-.179 1.485-.154.717-.512 1.383-.333.64-.845 1.203-.486.563-1.05 1.05-.563.46-1.151.921-.59.435-1.152.947-.538.487-1.024 1.05-.461.563-.82 1.229-.358.64-.563 1.356-.205.717-.281 1.46h7.475v1.792zm4.838 32.204q-.666 0-1.306-.102t-1.254-.358q-.589-.282-1.075-.717-.487-.46-.82-1.024-.332-.563-.486-1.203-.153-.64-.153-1.306v-.102h1.996v.076q0 .59.205 1.178.23.589.666.998.435.41 1.024.59.589.178 1.203.178.64 0 1.254-.23.64-.23 1.05-.717.435-.512.614-1.152.18-.64.18-1.305 0-.538-.128-1.05-.103-.538-.359-.998-.256-.487-.665-.845-.384-.384-.87-.589-.487-.23-1.025-.282-.537-.076-1.075-.076V75.07q.486 0 .973-.052.486-.05.921-.23.461-.205.82-.538.358-.358.563-.793.23-.435.333-.922.102-.486.102-.973 0-.588-.154-1.152-.128-.563-.486-1.024-.358-.46-.922-.69-.537-.231-1.126-.231-.563 0-1.1.205-.538.204-.922.64-.359.41-.512.972-.154.538-.154 1.101v.103H1.157v-.18q0-.614.128-1.228.154-.615.435-1.152.282-.564.717-.999.435-.46.999-.742.563-.282 1.177-.384.615-.128 1.229-.128.64 0 1.254.128.64.128 1.178.435.563.282.998.768.436.46.717 1.05.282.563.41 1.203.128.614.128 1.254 0 .691-.18 1.357-.153.666-.511 1.28-.333.589-.845 1.05-.512.46-1.127.742.692.282 1.28.794.615.486.999 1.126.41.64.589 1.408.204.742.204 1.485 0 .691-.153 1.382-.128.666-.435 1.28-.308.59-.794 1.101-.486.486-1.1.82-.59.306-1.28.434-.666.128-1.332.128zm1.05 31.796v-4.967H.799v-1.792l5.99-12.057h2.074l-5.99 12.057h4.019v-4.608h1.996v4.608h1.639v1.792H8.888v4.967zm-1.076 32.204q-.64 0-1.28-.128-.614-.102-1.177-.384-.563-.281-1.024-.716-.435-.461-.743-.999-.307-.563-.46-1.177-.154-.64-.18-1.255H2.95q.026.563.205 1.127.205.537.589.947.41.41.947.614.563.18 1.126.18.512 0 .973-.18.487-.179.82-.537.358-.359.563-.794.23-.46.358-.947.128-.487.154-.973.05-.512.05-.998 0-.512-.05-.999-.026-.486-.154-.947-.102-.486-.333-.947-.205-.46-.537-.82-.333-.358-.82-.537-.46-.18-.947-.18-.486 0-.973.103-.46.103-.87.384-.384.282-.614.717-.23.435-.256.922H1.183v-10.496h8.857v1.792H3.18v5.376q.614-.333 1.305-.461.717-.128 1.408-.128.743 0 1.46.205.742.179 1.33.64.59.46.999 1.1.41.615.64 1.332.23.716.307 1.459.103.742.103 1.485 0 .742-.103 1.484-.077.743-.333 1.46-.23.716-.64 1.356-.41.615-1.024 1.076-.588.46-1.33.64-.743.204-1.486.204zm-.05 32q-.718 0-1.434-.179-.717-.153-1.332-.537-.588-.41-1.05-.999-.434-.589-.69-1.254-.256-.691-.359-1.408-.102-.717-.102-1.46 0-1.151.205-2.303.23-1.152.614-2.253.384-1.1.87-2.15.512-1.076 1.05-2.1l2.176-4.377h2.202l-2.612 5.17-.819 1.69q-.41.845-.742 1.716.256-.308.563-.538.333-.23.691-.384.384-.154.768-.205.41-.077.794-.077.665 0 1.331.205.666.205 1.152.666.512.435.845 1.05.333.588.512 1.228.205.64.256 1.331.077.666.077 1.332 0 .742-.103 1.459-.102.717-.358 1.408-.256.665-.717 1.254-.435.59-1.05.999-.588.384-1.305.537-.717.18-1.434.18zm0-1.792q.46 0 .92-.128.462-.153.82-.46.384-.308.614-.717.256-.41.384-.845.128-.46.18-.922.05-.486.05-.972 0-.461-.05-.922-.052-.486-.18-.922-.128-.46-.384-.87-.23-.41-.614-.717-.358-.307-.82-.435-.46-.154-.92-.154-.436 0-.846.103-.41.102-.768.358-.332.256-.588.615-.256.358-.436.768-.153.384-.23.819-.077.41-.102.82v.537q0 .486.05.972.052.461.18.922.128.435.358.845.256.41.615.717.384.307.845.46.46.128.921.128zm-2.663 33.588 5.35-17.024h-7.45v-1.792h9.524v1.792L5.15 213.694zm2.662 32.204q-.614 0-1.254-.102-.615-.077-1.203-.333-.564-.256-1.05-.665-.486-.41-.82-.948-.332-.537-.486-1.126Q.8 242.11.8 241.47q0-.82.281-1.613.282-.82.743-1.485.486-.691 1.1-1.254.615-.564 1.28-1.076-.614-.486-1.177-1.024-.538-.537-.947-1.177-.41-.666-.666-1.408-.23-.743-.23-1.51 0-.59.128-1.153.153-.588.435-1.1.307-.512.742-.896.461-.41.973-.666.538-.256 1.127-.333.588-.102 1.177-.102.589 0 1.178.102.589.077 1.1.333.538.256.973.666.461.384.743.896.307.512.435 1.1.154.564.154 1.152 0 .768-.256 1.51-.23.743-.64 1.409-.41.64-.973 1.177-.538.538-1.152 1.024.665.512 1.28 1.076.614.563 1.075 1.254.486.666.768 1.485.282.793.282 1.613 0 .64-.154 1.254-.154.589-.486 1.126-.333.538-.82.948-.486.41-1.075.665-.563.256-1.203.333-.614.102-1.229.102zm0-10.982q.487-.384.947-.794.461-.41.82-.896.358-.486.588-1.075.23-.589.23-1.203 0-.486-.178-.973-.18-.512-.538-.845-.358-.358-.87-.512-.487-.153-.999-.153t-1.024.153q-.486.154-.845.512-.358.333-.537.845-.18.487-.18.973 0 .614.231 1.203.23.59.589 1.075.358.487.819.896.46.41.947.794zm0 9.19q.563 0 1.127-.128.563-.153.972-.512.436-.384.64-.921.23-.538.23-1.1 0-.692-.28-1.307-.257-.64-.692-1.152-.41-.537-.947-.972-.512-.436-1.05-.82-.537.384-1.075.82-.512.435-.947.972-.41.512-.691 1.152-.256.615-.256 1.306 0 .563.204 1.1.23.538.64.922.436.359.999.512.563.128 1.126.128zm.051 33.588H3.615l2.611-5.172.82-1.69q.409-.844.742-1.714-.256.307-.59.537-.306.23-.69.384-.359.154-.768.23-.384.052-.768.052-.666 0-1.332-.205-.665-.205-1.177-.64-.487-.46-.82-1.05-.332-.614-.537-1.254-.18-.64-.256-1.306-.051-.69-.051-1.356 0-.743.102-1.46.103-.716.359-1.382.256-.691.69-1.28.462-.589 1.05-.973.615-.41 1.332-.563.716-.18 1.433-.18.717 0 1.434.18.717.154 1.305.563.615.384 1.05.973.46.589.717 1.28.256.666.358 1.382.103.717.103 1.46 0 1.152-.23 2.304-.206 1.152-.59 2.252-.384 1.101-.896 2.176-.486 1.05-1.024 2.074zm-.05-9.165q.434 0 .844-.103.41-.102.742-.358.359-.256.615-.614.256-.359.41-.743.179-.41.255-.819.077-.435.103-.845v-.537q0-.487-.051-.948-.052-.486-.18-.921-.128-.46-.384-.87-.23-.41-.614-.717-.358-.308-.82-.436-.46-.153-.92-.153-.462 0-.922.153-.461.128-.845.436-.359.307-.615.716-.23.41-.358.87-.128.436-.18.922-.05.461-.05.948 0 .46.05.947.052.46.18.921.128.436.358.845.256.41.615.717.384.307.845.46.46.129.921.129zm0 41.37q-.692 0-1.383-.154-.666-.128-1.28-.46-.589-.334-1.075-.846-.461-.537-.743-1.152-.281-.64-.384-1.33-.102-.692-.102-1.383v-8.576q0-.692.102-1.383.103-.69.384-1.305.282-.64.743-1.152.486-.538 1.075-.87.614-.334 1.28-.462.691-.153 1.382-.153t1.357.153q.691.128 1.28.461.614.333 1.075.87.487.513.768 1.153.282.614.384 1.305.103.691.103 1.383v8.576q0 .69-.103 1.382-.102.691-.384 1.331-.281.615-.768 1.152-.46.512-1.075.845-.589.333-1.28.46-.666.154-1.357.154zm-2.97-8.295 5.939-4.71v-.896q0-.436-.051-.87-.052-.436-.205-.846-.154-.41-.435-.768-.256-.358-.615-.588-.358-.256-.793-.359-.436-.102-.87-.102-.436 0-.871.102-.435.103-.794.359-.358.23-.64.588-.256.359-.41.768-.153.41-.204.845-.051.435-.051.87zm2.97 6.502q.434 0 .87-.102.435-.102.793-.333.359-.256.615-.614.281-.359.435-.768.153-.41.205-.845.05-.435.05-.87v-5.607l-5.938 4.71v.897q0 .435.05.87.052.435.206.845.153.41.41.768.28.358.64.614.358.23.793.333.435.102.87.102z" aria-label="1 23 45 67 89 0" style="font-size:25.6px;line-height:1.25;font-family:&quot;Iosevka Fixed&quot;;-inkscape-font-specification:&quot;Iosevka Fixed, Normal&quot;;white-space:pre" transform="translate(2.252 2.537)"/></svg>