<svg clip-rule="evenodd" fill-rule="evenodd" height="1000" image-rendering="optimizeQuality" shape-rendering="geometricPrecision" text-rendering="geometricPrecision" width="50" xmlns="http://www.w3.org/2000/svg"><path d="m20.5 19.5h12v54h-12v-42h-6v-6h6zm-9 106v-6h25v6h6v18h-6v6h-6v6h-7v6h-6v6h25v6h-37v-12h6v-6h6v-6h6v-6h7v-18z"/><path d="m11.5 125.5v6h-6v-6zm0 142h19v-24h-19v-6h6v-6h6v-6h-18v-6h37v6h-6v6h-6v6h6v6h6v24h-6v6h-25z"/><path d="m11.5 267.5h-6v-6h6zm-2 76v6h19v-18h-7v-6h7v-6h12v30h6v6h-6v18h-12v-18h-25v-12z"/><path d="m21.5 331.5v6h-6v-6zm-6 6v6h-6v-6zm-4 130h19v-24h-25v-24h37v6h-25v12h19v6h6v24h-6v6h-25z"/><path d="m11.5 467.5h-6v-6h6zm6 52h19v6h-13v6h-6v6h19v6h6v24h-6v6h-25v-6h-6v-36h6v-6h6zm0 24h13v24h-13zm-12 76h37v24h-6v6h-6v24h-13v-24h6v-6h7v-18h-25zm6 100h25v6h6v12h-6v6h6v24h-6v6h-25v-6h-6v-24h6v-6h-6v-12h6zm6 6h13v12h-13zm0 18h13v24h-13zm-6 76h25v6h6v36h-6v6h-6v6h-19v-6h12v-6h7v-6h-19v-6h-6v-24h6zm6 6h13v24h-13zm-6 94h25v6h6v42h-6v6h-25v-6h-6v-42h6zm6 6h13v12h-7v6h-6zm6 24h7v18h-13v-12h6z"/></svg>